<?xml version="1.0" standalone="no"?>
<!DOCTYPE svg PUBLIC "-//W3C//DTD SVG 20010904//EN"
 "http://www.w3.org/TR/2001/REC-SVG-20010904/DTD/svg10.dtd">
<svg version="1.0" xmlns="http://www.w3.org/2000/svg"
 width="346.000000pt" height="346.000000pt" viewBox="0 0 346.000000 346.000000"
 preserveAspectRatio="xMidYMid meet">
<metadata>
Created by potrace 1.14, written by Peter Selinger 2001-2017
</metadata>
<g transform="translate(0.000000,346.000000) scale(0.100000,-0.100000)"
fill="#000000" stroke="none">
<path d="M0 1730 l0 -1730 1730 0 1730 0 0 1730 0 1730 -1730 0 -1730 0 0
-1730z m1987 1243 c-31 -160 -78 -497 -73 -519 4 -15 44 -64 89 -109 122 -121
167 -226 168 -385 0 -151 -47 -268 -144 -356 -59 -53 -129 -77 -199 -68 l-47
6 49 61 c151 186 156 459 13 717 -54 98 -49 97 -105 32 -82 -95 -165 -228
-199 -320 -26 -71 -33 -106 -37 -193 -5 -116 7 -174 55 -255 l23 -42 -22 -6
c-65 -17 -137 3 -194 56 -107 99 -120 296 -31 483 53 110 118 187 230 273 141
107 150 124 188 348 17 99 28 195 25 214 -12 80 -15 75 34 81 25 3 76 7 114 7
l69 2 -6 -27z m-183 -800 c77 -238 55 -428 -66 -559 -22 -24 -46 -44 -53 -44
-21 0 -72 86 -85 142 -24 98 6 252 77 392 41 81 82 146 94 146 4 0 19 -35 33
-77z m-523 -22 c-21 -32 -50 -97 -66 -142 -24 -72 -29 -100 -29 -189 1 -129
24 -199 90 -268 24 -25 44 -47 44 -49 0 -7 -74 9 -115 25 -232 89 -272 371
-80 566 50 50 151 114 182 116 7 0 -5 -27 -26 -59z m1019 15 c210 -149 173
-465 -70 -603 -54 -31 -171 -68 -193 -60 -6 2 6 13 26 26 72 44 147 162 182
285 25 85 17 271 -13 340 -12 27 -22 51 -22 53 0 10 48 -12 90 -41z m-230
-829 c0 -12 -9 -69 -20 -127 -27 -140 -27 -140 20 -95 21 21 39 45 38 54 -4
49 -1 51 72 51 63 0 70 -2 70 -20 0 -12 -16 -29 -42 -46 -24 -15 -53 -36 -65
-47 l-23 -20 27 -49 c14 -26 32 -48 38 -48 20 0 35 -24 28 -48 -5 -19 -12 -22
-54 -22 l-49 0 -37 75 c-21 41 -40 75 -44 75 -14 0 -16 -75 -3 -90 7 -9 11
-26 7 -38 -5 -20 -12 -22 -74 -22 -67 0 -69 1 -69 25 0 13 8 29 18 34 15 8 24
39 42 141 25 149 27 165 17 202 -7 26 -5 27 35 31 24 2 49 4 56 5 6 1 12 -8
12 -21z m-1284 -21 c43 8 44 -7 4 -36 -38 -27 -93 -24 -95 5 -2 11 -6 28 -10
37 -5 13 0 17 27 20 25 2 34 -1 36 -15 3 -14 10 -16 38 -11z m-57 -97 c17 -6
31 -15 31 -19 0 -17 -73 -66 -78 -52 -2 6 -14 12 -28 12 -35 0 -59 -43 -59
-109 l0 -56 61 -3 c52 -2 63 -6 67 -23 7 -25 -19 -39 -88 -46 -102 -11 -143
30 -132 128 9 74 43 130 97 157 49 24 82 27 129 11z m245 0 c33 -16 50 -58 41
-109 -9 -51 -26 -60 -114 -60 -73 0 -80 -5 -60 -42 9 -17 19 -19 72 -16 57 3
62 1 65 -19 4 -31 -43 -53 -112 -53 -47 0 -61 5 -87 28 -26 23 -31 35 -31 73
0 103 49 179 127 198 56 13 70 13 99 0z m298 -8 c4 -3 -11 -21 -33 -39 -28
-24 -39 -29 -39 -18 0 12 -10 16 -36 16 -31 0 -35 -3 -32 -22 2 -16 16 -26 52
-38 60 -20 88 -52 79 -89 -9 -39 -33 -70 -64 -87 -29 -14 -139 -18 -172 -6
-15 7 -13 12 18 42 27 26 38 32 44 22 5 -8 23 -12 47 -10 31 2 39 7 39 22 0
14 -13 24 -49 36 -61 20 -90 53 -82 94 14 66 72 99 161 90 33 -3 63 -9 67 -13z
m154 3 c-5 -13 -2 -15 11 -9 46 20 99 26 125 16 37 -14 44 -49 30 -145 -10
-66 -9 -82 2 -95 10 -11 11 -23 5 -39 -8 -21 -14 -23 -76 -20 -62 3 -68 5 -65
23 2 11 12 29 21 40 19 22 43 137 34 162 -5 11 -15 14 -45 10 -22 -3 -41 -7
-43 -9 -2 -1 -10 -38 -18 -81 -13 -69 -13 -78 1 -86 10 -6 13 -16 8 -35 -6
-25 -9 -26 -76 -26 -67 0 -70 1 -70 24 0 13 9 30 20 37 24 17 52 167 40 210
-10 33 -3 37 59 38 36 1 42 -2 37 -15z m455 -10 c14 -12 19 -31 19 -67 0 -74
-16 -87 -107 -87 -65 0 -73 -2 -73 -19 0 -32 26 -44 84 -39 48 4 55 2 60 -15
10 -39 -56 -64 -141 -54 -68 7 -88 33 -88 110 0 99 46 168 126 187 46 12 97 5
120 -16z m724 14 l26 -11 -33 -34 c-31 -32 -58 -43 -58 -23 0 20 -50 10 -64
-12 -19 -30 -30 -91 -22 -123 6 -23 11 -25 65 -25 57 0 71 -8 71 -39 0 -12
-74 -31 -122 -31 -87 0 -122 59 -98 161 27 112 142 180 235 137z m295 -20 c-1
-15 -34 -58 -90 -118 -73 -78 -86 -96 -70 -98 11 -2 34 4 52 12 17 9 32 15 33
14 0 -2 6 -16 13 -31 24 -56 22 -57 -106 -57 -65 0 -121 3 -124 6 -15 14 14
59 93 143 l86 91 -38 0 c-22 0 -39 -4 -39 -10 0 -23 -21 -7 -35 26 -8 20 -15
38 -15 40 0 2 54 4 120 4 118 0 120 0 120 -22z m-576 -194 c20 -8 21 -57 2
-73 -8 -7 -30 -11 -48 -9 -27 2 -34 8 -36 30 -5 39 41 68 82 52z m-1159 -306
c-4 -40 -11 -77 -17 -83 -6 -6 -7 13 -2 55 4 36 8 73 8 83 0 9 4 17 9 17 5 0
6 -32 2 -72z m217 35 c-3 -31 -2 -36 9 -25 7 6 21 12 31 12 17 0 19 -7 16 -55
-2 -30 -7 -55 -12 -55 -5 0 -6 20 -4 45 3 25 1 48 -4 51 -18 11 -48 -28 -48
-63 0 -18 -5 -33 -10 -33 -6 0 -8 15 -4 38 3 20 6 56 7 79 1 24 7 43 12 43 7
0 9 -15 7 -37z m448 34 c0 -2 -10 -12 -21 -23 -22 -19 -22 -19 -10 4 10 18 31
31 31 19z m374 -59 c-4 -35 -8 -70 -8 -79 0 -13 -9 -17 -36 -15 -31 1 -35 5
-38 29 -4 35 22 77 47 77 20 0 35 25 25 41 -3 5 0 9 6 9 9 0 10 -17 4 -62z
m-1180 10 c7 -5 4 -8 -6 -8 -13 0 -18 -8 -18 -29 0 -16 -3 -36 -6 -44 -3 -10
2 -17 13 -20 14 -4 13 -5 -5 -6 -22 -1 -23 2 -19 52 5 60 18 99 25 76 3 -7 10
-17 16 -21z m910 0 c7 -5 4 -8 -6 -8 -13 0 -18 -8 -18 -29 0 -16 -3 -36 -6
-44 -3 -10 2 -17 13 -20 14 -4 13 -5 -5 -6 -22 -1 -23 2 -19 52 5 60 18 99 25
76 3 -7 10 -17 16 -21z m-314 -1 c13 -5 12 -6 -1 -6 -10 -1 -19 -13 -23 -32
-10 -50 -8 -62 10 -55 8 3 12 2 9 -4 -3 -6 -13 -10 -21 -10 -12 0 -15 11 -13
53 3 59 9 83 18 69 3 -5 13 -12 21 -15z m-503 -51 l-2 -54 -37 0 c-43 -1 -55
19 -38 64 13 33 26 44 57 44 19 0 21 -5 20 -54z m103 45 c0 -6 -10 -17 -22
-25 l-22 -16 22 -30 c17 -22 19 -30 9 -30 -8 0 -20 13 -27 29 -10 25 -9 33 7
55 19 26 33 33 33 17z m100 0 c-21 -6 -25 -14 -28 -50 -3 -43 -3 -43 25 -37
21 5 24 4 13 -4 -34 -23 -60 -6 -60 39 0 27 30 61 53 60 20 -1 20 -2 -3 -8z
m168 -36 c-3 -25 -2 -48 2 -50 17 -11 40 8 41 34 0 14 4 35 9 46 6 14 8 3 7
-36 l-2 -56 -35 1 -35 1 0 53 c-1 28 3 52 8 52 5 0 7 -20 5 -45z m172 33 c0
-9 3 -9 12 0 7 7 20 12 31 12 16 0 18 -7 15 -55 -2 -30 -7 -55 -11 -55 -5 0
-6 23 -2 50 6 40 4 50 -8 50 -21 0 -37 -23 -44 -64 -3 -20 -10 -36 -15 -36 -5
0 -7 4 -4 8 3 5 6 29 7 55 2 26 6 47 11 47 4 0 8 -5 8 -12z m160 -35 c-5 -27
-6 -51 -4 -55 2 -3 -13 -5 -34 -5 -33 2 -37 5 -40 30 -5 41 22 77 57 77 28 0
28 0 21 -47z m170 25 c-13 -12 -20 -32 -20 -53 0 -19 -4 -35 -9 -35 -5 0 -8
24 -8 54 2 53 3 54 30 54 27 -1 27 -1 7 -20z m108 -31 l-3 -54 -35 1 c-31 1
-35 4 -38 29 -5 39 22 77 53 77 24 0 25 -2 23 -53z m158 45 c-3 -5 -6 -29 -7
-55 -2 -26 -6 -47 -11 -47 -5 0 -7 25 -6 55 2 37 7 55 16 55 7 0 11 -4 8 -8z
m77 1 c-30 -6 -45 -27 -41 -60 2 -21 8 -28 25 -27 12 0 20 -3 17 -8 -10 -15
-43 -8 -54 12 -21 39 8 91 49 89 22 -2 23 -2 4 -6z m97 -11 c0 -23 -19 -42
-43 -42 -12 0 -17 -6 -15 -17 2 -11 12 -18 25 -17 12 0 20 -3 17 -8 -10 -15
-43 -8 -54 12 -17 32 12 90 44 90 18 0 26 -5 26 -18z"/>
<path d="M858 1135 c-15 -33 -9 -37 41 -29 35 6 41 10 41 30 0 21 -5 24 -35
24 -28 0 -38 -5 -47 -25z"/>
<path d="M1744 1135 c-9 -14 -14 -28 -11 -31 3 -3 26 -2 52 1 40 6 46 10 43
29 -5 34 -62 35 -84 1z"/>
<path d="M2140 684 c-14 -36 -12 -54 6 -61 21 -8 31 5 39 50 7 33 5 37 -14 37
-14 0 -25 -9 -31 -26z"/>
<path d="M1060 691 c-14 -28 -13 -71 3 -71 22 0 37 23 37 57 0 38 -23 45 -40
14z"/>
<path d="M1772 698 c-17 -17 -16 -78 2 -78 19 0 23 7 31 53 8 39 -7 51 -33 25z"/>
<path d="M2040 684 c-13 -33 -13 -51 1 -60 16 -9 35 16 42 54 6 27 4 32 -13
32 -13 0 -24 -10 -30 -26z"/>
<path d="M2380 690 c-8 -15 -8 -20 3 -20 14 0 37 19 37 32 0 16 -30 7 -40 -12z"/>
</g>
</svg>
